<?xml version="1.0" standalone="no"?>
<!DOCTYPE svg PUBLIC "-//W3C//DTD SVG 20010904//EN"
 "http://www.w3.org/TR/2001/REC-SVG-20010904/DTD/svg10.dtd">
<svg version="1.0" xmlns="http://www.w3.org/2000/svg"
 width="400.000000pt" height="400.000000pt" viewBox="0 0 400.000000 400.000000"
 preserveAspectRatio="xMidYMid meet">

<g transform="translate(0.000000,400.000000) scale(0.100000,-0.100000)"
fill="#000000" stroke="none">
<path d="M3043 3530 c-18 -11 -52 -50 -76 -87 -24 -38 -87 -114 -141 -170
l-97 -101 -157 54 c-147 51 -163 54 -252 54 -160 -1 -330 -18 -399 -41 -36
-11 -110 -43 -164 -71 -84 -42 -104 -48 -123 -39 -13 5 -51 49 -86 96 -154
210 -186 241 -242 231 -49 -9 -119 -75 -146 -138 -32 -75 -47 -222 -33 -339
13 -108 13 -107 -62 -134 -164 -58 -255 -149 -317 -318 -25 -67 -31 -103 -35
-192 -6 -124 5 -184 58 -311 52 -124 203 -264 371 -343 76 -36 132 -92 147
-148 18 -63 13 -163 -15 -294 -43 -209 -27 -317 64 -422 l41 -48 -16 -35 c-15
-31 -15 -38 -3 -57 8 -12 24 -41 35 -64 28 -57 132 -113 212 -113 66 0 100 14
199 81 l78 52 45 -27 c113 -67 173 -89 251 -94 92 -5 177 11 225 44 20 13 42
24 48 24 7 0 52 -20 100 -45 75 -38 97 -45 146 -45 46 0 66 5 95 25 21 14 53
32 72 40 39 16 58 52 69 131 6 47 4 53 -18 71 -13 10 -43 27 -66 37 -47 22
-50 34 -23 98 28 69 22 175 -16 283 -19 54 -34 117 -36 158 -6 84 -19 124 -62
190 -51 77 -46 92 51 131 202 82 320 162 385 258 51 76 53 88 47 201 -4 79
-10 104 -42 177 -37 83 -39 89 -46 243 -5 87 -11 167 -14 178 -5 15 9 36 58
89 124 131 189 308 166 452 -11 67 -71 222 -97 252 -41 46 -126 59 -179 26z
m133 -52 c95 -83 136 -337 77 -470 -44 -98 -159 -222 -182 -195 -7 10 1 27 35
68 25 29 66 96 91 146 40 81 47 103 51 170 2 43 -1 97 -7 120 -16 58 -70 135
-104 146 -50 16 -80 -6 -154 -117 -79 -118 -190 -233 -251 -260 -28 -13 -42
-25 -40 -35 8 -37 75 -7 183 84 25 22 142 174 170 223 49 85 92 80 133 -16 53
-125 28 -240 -85 -399 -24 -35 -49 -63 -56 -62 -7 0 -38 34 -70 75 -59 74 -97
96 -97 55 0 -11 4 -23 10 -26 18 -11 126 -159 149 -202 27 -55 41 -149 41
-298 0 -120 0 -120 40 -200 50 -99 65 -176 50 -249 -31 -151 -174 -268 -418
-342 -48 -15 -93 -34 -99 -42 -7 -9 -13 -35 -13 -58 0 -34 7 -49 40 -86 49
-57 60 -84 60 -155 0 -117 -63 -181 -168 -171 -64 6 -132 40 -163 80 -19 26
-24 45 -24 88 1 103 59 170 147 170 42 0 56 14 37 36 -10 13 -24 15 -64 9 -84
-10 -140 -59 -159 -137 l-6 -27 -58 27 c-49 23 -70 27 -147 27 -70 -1 -100 -6
-136 -22 l-46 -21 -12 39 c-24 80 -101 136 -176 127 -22 -2 -30 -8 -30 -23 0
-16 9 -21 46 -26 88 -13 120 -55 123 -163 1 -67 -21 -101 -87 -132 -100 -46
-201 -24 -233 51 -17 41 -19 148 -3 178 7 12 29 41 50 64 70 77 61 147 -22
172 -81 24 -224 100 -280 150 -30 27 -68 73 -84 102 -25 46 -29 65 -29 129 0
91 13 137 59 214 32 53 35 65 35 135 0 83 23 248 42 296 6 17 31 61 55 99 41
64 51 99 28 100 -5 1 -25 -20 -45 -46 l-34 -47 -23 20 c-12 12 -39 53 -60 93
-36 68 -38 75 -38 167 0 89 2 99 30 145 32 51 63 66 91 43 8 -6 43 -55 78
-108 95 -144 174 -217 228 -209 38 6 30 27 -20 52 -60 31 -117 94 -186 205
-72 119 -124 146 -184 96 -48 -40 -83 -131 -84 -222 -1 -97 22 -167 87 -259
25 -37 44 -71 42 -78 -7 -17 -89 75 -122 135 -51 94 -45 263 14 393 29 64 88
126 120 126 30 0 65 -35 106 -105 51 -87 182 -244 209 -251 14 -3 42 7 80 30
32 19 93 49 134 67 l77 31 48 -53 c70 -79 162 -219 182 -278 15 -46 35 -69 35
-40 0 22 92 194 135 254 69 95 109 135 136 135 25 0 123 -33 204 -69 26 -12
52 -21 57 -21 33 0 189 159 261 266 33 50 70 95 81 101 40 20 74 14 112 -19z
m-827 -234 c17 -4 31 -9 31 -13 0 -3 -25 -37 -55 -74 -30 -37 -74 -100 -97
-140 -50 -86 -50 -85 -55 -70 -10 29 -103 162 -146 209 -26 29 -47 54 -47 57
0 2 26 9 58 15 31 7 66 13 77 16 33 6 200 6 234 0z m-1121 -467 l63 -63 -10
-45 c-5 -24 -13 -77 -17 -116 -3 -40 -10 -73 -15 -73 -4 0 -34 18 -66 41 -84
59 -188 100 -290 114 -29 4 -53 11 -53 16 0 14 74 85 120 115 32 21 165 70
200 73 3 1 34 -27 68 -62z m-298 -197 c84 -17 174 -57 244 -110 60 -45 76 -66
76 -97 0 -44 -21 -43 -79 1 -99 77 -202 118 -332 133 l-67 8 15 37 c14 36 32
48 63 43 8 -2 44 -9 80 -15z m16 -141 c82 -25 158 -67 215 -118 l43 -38 -18
-47 -18 -47 -52 49 c-91 86 -205 126 -324 115 l-52 -6 6 34 c14 84 9 79 73 79
32 0 89 -9 127 -21z m34 -166 c67 -33 81 -43 139 -106 29 -31 34 -44 37 -92 2
-30 8 -72 13 -93 17 -60 80 -142 156 -200 83 -64 89 -80 82 -222 -4 -88 -31
-198 -54 -221 -4 -4 -6 28 -4 72 6 148 -46 224 -232 336 -231 139 -327 256
-363 439 -23 125 -25 124 96 120 50 -1 80 -9 130 -33z m494 -669 c-2 -139 -19
-155 -20 -19 0 77 3 114 10 112 7 -3 11 -38 10 -93z m106 50 c52 -21 51 -40
-4 -103 -25 -28 -50 -67 -55 -88 -12 -42 -13 -134 -2 -173 5 -18 -2 -42 -26
-88 -18 -35 -38 -84 -44 -108 -13 -49 -23 -56 -33 -21 -15 56 -5 119 38 234
46 124 61 184 71 296 4 37 8 67 11 67 2 0 22 -7 44 -16z m678 -274 c34 -16 62
-35 62 -42 0 -67 70 -155 147 -184 23 -9 45 -24 47 -33 33 -111 32 -301 -3
-393 -65 -170 -287 -231 -486 -133 -149 73 -212 160 -222 305 -8 107 36 310
66 310 17 0 65 74 71 109 4 29 13 40 47 58 54 28 66 30 143 32 53 1 77 -5 128
-29z m-893 -237 c0 -81 3 -93 33 -145 41 -73 43 -102 6 -67 -58 53 -77 140
-53 249 6 27 11 50 12 50 1 0 2 -39 2 -87z m240 41 c41 -24 54 -26 116 -22 62
5 69 3 64 -11 -20 -50 -37 -184 -32 -258 4 -66 11 -95 39 -153 41 -84 40 -85
-60 -78 -144 11 -229 99 -252 260 -7 47 -5 76 10 133 16 64 54 155 64 155 2 0
25 -12 51 -26z m1175 -41 c33 -88 26 -196 -18 -285 -18 -37 -52 -87 -76 -111
-42 -42 -120 -86 -132 -74 -3 3 2 30 12 59 20 59 25 227 10 336 -8 61 -8 62
15 62 42 0 98 20 126 45 16 13 31 25 35 25 4 0 16 -26 28 -57z m-1456 -190
c21 -38 44 -63 89 -97 43 -33 48 -56 13 -56 -66 0 -134 112 -141 231 l-5 74
15 -62 c8 -35 21 -75 29 -90z m1486 -193 c0 -5 -7 -10 -15 -10 -8 0 -15 5 -15
10 0 6 7 10 15 10 8 0 15 -4 15 -10z m-1325 -9 c3 -5 -5 -13 -17 -16 -13 -4
-35 -19 -50 -33 -27 -25 -28 -25 -28 -4 0 15 12 28 38 41 43 23 49 24 57 12z
m1327 -51 c29 0 68 -30 68 -53 0 -20 -30 -57 -45 -57 -8 0 -21 13 -30 29 -8
16 -29 40 -46 54 -22 17 -30 30 -26 42 6 15 9 15 29 1 12 -9 35 -16 50 -16z
m-1290 -28 c-7 -9 -22 -32 -33 -49 -23 -36 -43 -42 -53 -17 -10 27 -7 34 32
73 32 32 39 36 52 24 12 -11 12 -17 2 -31z m1188 -25 c14 -12 35 -35 48 -51
21 -27 21 -30 6 -47 -37 -41 -113 -33 -199 22 l-50 32 68 22 c37 12 73 27 79
33 16 16 19 15 48 -11z m-1070 -17 c30 -11 70 -19 88 -20 45 0 37 -17 -21 -48
-82 -43 -176 -37 -185 12 -3 16 43 77 57 76 3 -1 31 -9 61 -20z"/>
<path d="M1710 2869 c-65 -10 -130 -43 -179 -92 -57 -56 -86 -107 -110 -196
-19 -69 -30 -205 -18 -217 3 -4 100 1 215 10 116 9 259 16 320 16 128 0 122
-6 122 120 0 259 -131 393 -350 359z m-85 -106 c-42 -62 -67 -157 -67 -255 0
-96 -1 -98 -80 -98 -36 0 -38 2 -38 33 0 51 28 154 57 214 27 55 113 143 139
143 11 0 8 -10 -11 -37z m86 -83 c45 -24 12 -130 -41 -130 -45 0 -51 94 -7
125 26 18 23 18 48 5z"/>
<path d="M2492 2862 c-97 -35 -163 -120 -196 -253 -17 -68 -21 -195 -8 -216 5
-8 43 -12 122 -12 63 1 210 -5 327 -11 117 -7 219 -10 228 -7 11 5 15 22 15
75 0 193 -71 336 -202 407 -45 25 -66 30 -143 32 -69 3 -102 -1 -143 -15z
m283 -71 c48 -30 73 -58 102 -114 35 -69 53 -140 53 -209 l0 -58 -49 0 c-78 0
-78 0 -73 92 5 94 -10 172 -47 243 -14 28 -27 53 -29 58 -6 12 12 8 43 -12z
m-314 -122 c24 -24 21 -70 -8 -101 -52 -58 -102 32 -52 96 25 31 33 32 60 5z"/>
<path d="M2112 2320 c-28 -17 -33 -25 -30 -52 2 -24 12 -39 38 -56 42 -28 43
-39 7 -66 -22 -16 -43 -21 -86 -21 -67 1 -103 19 -133 71 -23 39 -42 40 -46 2
-8 -66 116 -139 208 -123 38 6 40 5 40 -19 0 -26 1 -26 80 -26 44 0 83 0 88 0
4 -1 9 14 12 32 l5 33 55 -3 c35 -2 71 2 97 13 68 27 130 135 77 135 -8 0 -24
-16 -36 -35 -26 -45 -64 -65 -125 -65 -48 0 -114 25 -120 46 -2 6 8 16 21 22
28 12 42 49 31 81 -15 50 -123 68 -183 31z m122 -36 c39 -15 10 -44 -43 -44
-33 0 -67 23 -57 38 8 13 73 16 100 6z m-4 -158 c33 -37 21 -60 -28 -51 -20 4
-39 8 -40 10 -5 5 31 65 38 65 4 0 17 -11 30 -24z"/>
<path d="M1921 1726 c-10 -12 -8 -19 8 -35 67 -67 196 -105 308 -91 83 10 193
62 193 89 0 27 -20 27 -78 -3 -132 -66 -264 -56 -379 30 -37 28 -37 28 -52 10z"/>
</g>
</svg>
